# xmcd
#
# Track frame offsets:
#	150
#	13002
#	26764
#	38853
#	50525
#	64465
#	78287
#	90141
#	103563
#	122135
#
# Disc length: 1822 seconds
#
# Revision: 0
# Processed by: cddbd v1.5.2PL0 Copyright (c) Steve Scherf et al.
# Submitted via: EasyCDDAExtractor 4.6.0.1
#
DISCID=78071c0a
DTITLE=Benny Berry - When The Trains Still Ran Through Dixie
DYEAR=1993
DGENRE=Country
TTITLE0=All The Things She Can Do
TTITLE1=Friends Just Don't Treat Friends That Way
TTITLE2=Maybe, Maybe Not
TTITLE3=Heart Don't Start Stoppin' On Me Now
TTITLE4=Put Me In Your Pocket
TTITLE5=In The Garden
TTITLE6=Jesus Takes A Hold
TTITLE7=West Texas Love Song
TTITLE8=In My Next Life
TTITLE9=When The Trains Still Ran Through Dixie
EXTD=
EXTT0=
EXTT1=
EXTT2=
EXTT3=
EXTT4=
EXTT5=
EXTT6=
EXTT7=
EXTT8=
EXTT9=
PLAYORDER=
